<svg xmlns="http://www.w3.org/2000/svg" viewBox="0 0 691.6 143.06"><defs><style>.cls-1{fill:#ea760f;}.cls-2{fill:#fff;}</style></defs><g id="Layer_2" data-name="Layer 2"><g id="Layer_1-2" data-name="Layer 1"><rect class="cls-1" x="564.3" y="69.72" width="125.77" height="27.89" transform="translate(-2.72 143.5) rotate(-13.02)"/><rect class="cls-1" x="557.12" y="111.57" width="125.77" height="27.89"/><rect class="cls-1" x="562.87" y="26.91" width="125.77" height="27.89" transform="translate(49.04 287.11) rotate(-26.86)"/><path class="cls-2" d="M79.57,110.65a3.52,3.52,0,0,0-3.89,2.28,81.73,81.73,0,0,1-6.8,13.67q-3,4.56-6.39,6.13a18.82,18.82,0,0,1-8.12,1.58H36.66q-4.19,0-6.21-1.65a6,6,0,0,1-2-4.89V92H50a15.45,15.45,0,0,1,4.89.66,8.34,8.34,0,0,1,3.53,2.43,27.53,27.53,0,0,1,3.41,5.14,3.49,3.49,0,0,0,4,1.69,2.74,2.74,0,0,0,1.68-1.36,3.61,3.61,0,0,0,0-2.53L62.16,77c-.49-2-1.55-2.84-3.16-2.64a2.91,2.91,0,0,0-1.88.92,4.77,4.77,0,0,0-1,2.31q-.66,5-2.46,6.72C52.47,85.47,50.38,86,47.39,86h-19V43.5H52.24a28.33,28.33,0,0,1,6.28.62,12.28,12.28,0,0,1,4.89,2.39,20.4,20.4,0,0,1,4.33,5.18,77.49,77.49,0,0,1,4.63,9,4.61,4.61,0,0,0,2,2.13,3.73,3.73,0,0,0,2.75.15A2.72,2.72,0,0,0,79,61.58a3.09,3.09,0,0,0,0-2.5L73.32,38.5a7.23,7.23,0,0,0-1.54-3.19,3.6,3.6,0,0,0-2.72-1,5.81,5.81,0,0,0-3,.77c-.88.51-1.82,1-2.83,1.58a8.08,8.08,0,0,1-3.85.81H3.6a4.39,4.39,0,0,0-2.72.69,2.42,2.42,0,0,0-.88,2c0,1.47.93,2.48,2.79,3l4.78.88a5.33,5.33,0,0,1,2.75,1.43,3.6,3.6,0,0,1,.92,2.53v81.71a3.58,3.58,0,0,1-.92,2.53,5.33,5.33,0,0,1-2.75,1.43l-4.78.89c-1.86.54-2.79,1.54-2.79,3a2.44,2.44,0,0,0,.88,2,4.19,4.19,0,0,0,2.72.74H62a8.87,8.87,0,0,1,3.71.69c1,.47,2,.92,2.83,1.36a6.33,6.33,0,0,0,2.86.67,4,4,0,0,0,2.94-1A7.11,7.11,0,0,0,76,138.79l6-24a3.58,3.58,0,0,0-.22-2.83A2.86,2.86,0,0,0,79.57,110.65Z"/><path class="cls-2" d="M168.78,135.27l-3.09-.74a4.46,4.46,0,0,1-2.38-1.5,5.05,5.05,0,0,1-.85-3.2V91.4q0-10-5.69-15.87t-15-5.87A28.83,28.83,0,0,0,129,72.89a66.47,66.47,0,0,0-13.59,9.55v-8.3a4,4,0,0,0-1-2.87,3.73,3.73,0,0,0-2.86-1,11.66,11.66,0,0,0-2.68.37,32.17,32.17,0,0,0-3.79,1.25L93,76.12a5.84,5.84,0,0,0-2.31,1.25A2.26,2.26,0,0,0,90.09,79a1.84,1.84,0,0,0,.55,1.36,3.51,3.51,0,0,0,1.88.77l4.92.22a2.58,2.58,0,0,1,1.87.88,4.1,4.1,0,0,1,.55,2.42v45.48a5,5,0,0,1-.73,3,3.81,3.81,0,0,1-2.21,1.36l-3.45.81a4.17,4.17,0,0,0-2,1,2.19,2.19,0,0,0-.62,1.54,2.25,2.25,0,0,0,.81,1.84,3.88,3.88,0,0,0,2.49.66h26.31q3.45,0,3.45-2.57c0-1.18-.78-2-2.35-2.5l-3.23-.81a3.81,3.81,0,0,1-2.21-1.36,5.14,5.14,0,0,1-.73-3V88l1-.88a39,39,0,0,1,9.14-6,19.73,19.73,0,0,1,8-1.92,13,13,0,0,1,9.66,3.68q3.63,3.68,3.63,11v36a6,6,0,0,1-.69,3.16,3.56,3.56,0,0,1-2.32,1.47l-3.38.81c-1.57.49-2.35,1.32-2.35,2.5q0,2.56,3.45,2.57H168a3.86,3.86,0,0,0,2.53-.66,2.29,2.29,0,0,0,.78-1.84,2.15,2.15,0,0,0-.63-1.54A4.06,4.06,0,0,0,168.78,135.27Z"/><path class="cls-2" d="M252.55,135.19l-3.23-.73a4,4,0,0,1-2.24-1.36,4.91,4.91,0,0,1-.77-3V35.86a4,4,0,0,0-1-2.87,3.65,3.65,0,0,0-2.79-1,11.51,11.51,0,0,0-2.72.36A38,38,0,0,0,236,33.58L224,37.84a6.46,6.46,0,0,0-2.31,1.21,2.16,2.16,0,0,0-.63,1.59,2,2,0,0,0,.55,1.43,3,3,0,0,0,1.8.7l5,.22a2.47,2.47,0,0,1,1.87.91,4.32,4.32,0,0,1,.55,2.47V76.81a27.82,27.82,0,0,0-19.39-7.15,33.18,33.18,0,0,0-17.31,4.62,33.56,33.56,0,0,0-12.34,13.08q-4.59,8.46-4.59,20.06a39.65,39.65,0,0,0,3.89,17.93,30.51,30.51,0,0,0,10.73,12.23,27.83,27.83,0,0,0,15.5,4.45,30.09,30.09,0,0,0,16.42-4.78,40.2,40.2,0,0,0,7.53-6.26v1.85a7.38,7.38,0,0,0,2,5.55,7.47,7.47,0,0,0,5.41,2h13.15a4.07,4.07,0,0,0,2.53-.66,2.22,2.22,0,0,0,.85-1.84,2.13,2.13,0,0,0-.63-1.58A5,5,0,0,0,252.55,135.19Zm-27.81-4.85a20.44,20.44,0,0,1-11.35,3.46,17.33,17.33,0,0,1-10.21-3.16,21,21,0,0,1-7.09-9.44,40.63,40.63,0,0,1-2.61-15.54q0-9.85,2.68-16.31a21.1,21.1,0,0,1,7.35-9.66A18,18,0,0,1,214,76.49a20.63,20.63,0,0,1,11.42,3.45,25.06,25.06,0,0,1,5.4,4.85v40.1A28.56,28.56,0,0,1,224.74,130.34Z"/><path class="cls-2" d="M316.92,74.32a38.61,38.61,0,0,0-19.07-4.59,39,39,0,0,0-19.36,4.67,34.08,34.08,0,0,0-13.07,12.78,36.25,36.25,0,0,0-4.74,18.63,37.26,37.26,0,0,0,4.66,18.77,33.4,33.4,0,0,0,12.93,12.82,41.87,41.87,0,0,0,38.43-.08,34.35,34.35,0,0,0,13.08-12.85A36.18,36.18,0,0,0,334.52,106a37.4,37.4,0,0,0-4.67-18.84A33.12,33.12,0,0,0,316.92,74.32Zm1.25,45.11A21.75,21.75,0,0,1,313,130.6a16.29,16.29,0,0,1-10,5,18.38,18.38,0,0,1-11.54-1.91,23.06,23.06,0,0,1-8.88-9.11,46.85,46.85,0,0,1-5.3-15.79A48.38,48.38,0,0,1,277,92.29a21.77,21.77,0,0,1,5.15-11.14,16.36,16.36,0,0,1,9.95-5A18,18,0,0,1,303.66,78a23.35,23.35,0,0,1,8.89,9.11,46.7,46.7,0,0,1,5.29,15.83A47.64,47.64,0,0,1,318.17,119.43Z"/><path class="cls-2" d="M451.26,73.7a2.16,2.16,0,0,0-.88-1.84A3.83,3.83,0,0,0,448,71.2H428.41a4.19,4.19,0,0,0-2.42.62,2.07,2.07,0,0,0-.88,1.8,2.13,2.13,0,0,0,.66,1.69,5.1,5.1,0,0,0,2.2,1l3,.51c2.15.35,3.39,1.09,3.71,2.24s0,3.32-1.07,6.51l-13.95,43.12L405.27,84.06q-1.25-3.82-.84-5.44a2.59,2.59,0,0,1,2.46-1.91l3.45-.51a3.61,3.61,0,0,0,2-.85A2.22,2.22,0,0,0,413,73.7c0-1.67-1.11-2.5-3.31-2.5H382.57c-2.21,0-3.31.81-3.31,2.42a2.4,2.4,0,0,0,.55,1.69,4.49,4.49,0,0,0,1.95,1l2.86.52a4.1,4.1,0,0,1,2.13,1.1,8.71,8.71,0,0,1,1.62,3.16l1.15,3.4-14.95,44L360.23,84.72c-1-3-1.3-5-1-6s1.49-1.65,3.45-2l3-.51a4.72,4.72,0,0,0,2.17-1,2.23,2.23,0,0,0,.62-1.66,2.07,2.07,0,0,0-.88-1.8,4.14,4.14,0,0,0-2.42-.62H336.72a3.93,3.93,0,0,0-2.42.66,2.16,2.16,0,0,0-.89,1.84,2.25,2.25,0,0,0,.56,1.61,4.46,4.46,0,0,0,2,1l2.71.52a4.22,4.22,0,0,1,2.21,1.21,10.82,10.82,0,0,1,1.84,3.71l18.95,55.4a6.15,6.15,0,0,0,2.17,3.12,5.58,5.58,0,0,0,3.2.92h5.21a6.5,6.5,0,0,0,3.12-.77,4.9,4.9,0,0,0,2.17-2.83l15.24-43.31,14.44,42.87a5.71,5.71,0,0,0,2.21,3.08,5.56,5.56,0,0,0,3.08,1h5.15a6.14,6.14,0,0,0,3.05-.81,5.1,5.1,0,0,0,2.16-2.94L441.12,84a24.47,24.47,0,0,1,2.36-5.47,4,4,0,0,1,2.42-1.8l2.72-.44a3.86,3.86,0,0,0,2.09-1A2.33,2.33,0,0,0,451.26,73.7Z"/><path class="cls-2" d="M527.67,136.26a5,5,0,0,0-2-1.07l-3.24-.73a4,4,0,0,1-2.24-1.36,5,5,0,0,1-.77-3V35.86a4.09,4.09,0,0,0-.95-2.87,3.65,3.65,0,0,0-2.79-1,11.45,11.45,0,0,0-2.72.36,37.18,37.18,0,0,0-3.82,1.25l-12.05,4.26a6.62,6.62,0,0,0-2.32,1.21,2.15,2.15,0,0,0-.62,1.59,1.94,1.94,0,0,0,.55,1.43,3,3,0,0,0,1.8.7l5,.22a2.5,2.5,0,0,1,1.88.91,4.4,4.4,0,0,1,.55,2.47V76.81a27.82,27.82,0,0,0-19.4-7.15,33.14,33.14,0,0,0-17.3,4.62,33.49,33.49,0,0,0-12.34,13.08q-4.59,8.46-4.6,20.06a39.52,39.52,0,0,0,3.9,17.93,30.49,30.49,0,0,0,10.72,12.23A27.87,27.87,0,0,0,480.39,142a30.12,30.12,0,0,0,16.42-4.78,40.85,40.85,0,0,0,7.53-6.26v1.85a7.34,7.34,0,0,0,2,5.55,7.46,7.46,0,0,0,5.4,2h13.15a4.1,4.1,0,0,0,2.54-.66,2.22,2.22,0,0,0,.84-1.84A2.16,2.16,0,0,0,527.67,136.26Zm-29.83-5.92a20.48,20.48,0,0,1-11.35,3.46,17.36,17.36,0,0,1-10.22-3.16,21,21,0,0,1-7.09-9.44,40.63,40.63,0,0,1-2.61-15.54q0-9.85,2.69-16.31a21,21,0,0,1,7.34-9.66,18,18,0,0,1,10.47-3.2,20.64,20.64,0,0,1,11.43,3.45,25.09,25.09,0,0,1,5.4,4.86v40.09A29,29,0,0,1,497.84,130.34Z"/></g></g></svg>