<svg xmlns="http://www.w3.org/2000/svg" width="117" height="24" viewBox="0 0 117 24" fill="none">
  <path d="M114.979 9.39188L94.4205 14.1458L95.4747 18.7047L116.033 13.9508L114.979 9.39188Z" fill="#EA760F"/>
  <path d="M114.572 18.7217H93.4713V23.4009H114.572V18.7217Z" fill="#EA760F"/>
  <path d="M113.34 1.31887e-06L94.515 9.53369L96.6291 13.7081L115.454 4.1744L113.34 1.31887e-06Z" fill="#EA760F"/>
  <path d="M13.3504 18.5675C13.2141 18.5448 13.0741 18.5706 12.9548 18.6405C12.8355 18.7104 12.7446 18.82 12.6978 18.95C12.3899 19.7484 12.0079 20.5163 11.5569 21.2435C11.2214 21.7535 10.864 22.0963 10.4848 22.272C10.056 22.4603 9.59064 22.5508 9.12249 22.537H6.15121C5.68256 22.537 5.33526 22.4448 5.10933 22.2602C4.99449 22.1581 4.90455 22.0311 4.84639 21.8889C4.78823 21.7467 4.76339 21.5931 4.77378 21.4398V15.4385H8.38932C8.66696 15.4312 8.94396 15.4686 9.20974 15.5492C9.43929 15.6312 9.64345 15.7718 9.80198 15.9569C10.0244 16.222 10.2163 16.5113 10.3741 16.8193C10.4375 16.9354 10.5383 17.0266 10.6602 17.0781C10.782 17.1296 10.9177 17.1383 11.0452 17.1028C11.1052 17.0859 11.1611 17.0569 11.2096 17.0177C11.258 16.9785 11.298 16.9298 11.3271 16.8746C11.3783 16.7378 11.3783 16.587 11.3271 16.4502L10.4295 12.9219C10.3472 12.5863 10.1694 12.4454 9.89929 12.479C9.77865 12.4895 9.66623 12.5445 9.58387 12.6333C9.49426 12.7451 9.43631 12.879 9.4161 13.0209C9.34228 13.5801 9.2047 13.9559 9.00337 14.1483C8.80372 14.3429 8.45307 14.4318 7.95143 14.4318H4.76371V7.30143H8.76513C9.11912 7.29676 9.47252 7.33165 9.81876 7.40545C10.1188 7.47606 10.3991 7.61308 10.6392 7.80643C10.9279 8.05376 11.1734 8.34747 11.3656 8.6755C11.6572 9.16136 11.9167 9.66576 12.1424 10.1855C12.2126 10.3378 12.3303 10.4632 12.478 10.5428C12.6229 10.6098 12.788 10.6188 12.9394 10.568C13.006 10.555 13.0688 10.5274 13.1234 10.487C13.178 10.4467 13.2229 10.3947 13.2548 10.3348C13.284 10.2687 13.2991 10.1973 13.2991 10.1251C13.2991 10.0528 13.284 9.98141 13.2548 9.91536L12.3018 6.46256C12.2614 6.26549 12.1726 6.08157 12.0434 5.92736C11.9832 5.8693 11.9115 5.8244 11.8329 5.79552C11.7543 5.76664 11.6706 5.7544 11.5871 5.75958C11.4107 5.75631 11.2368 5.80096 11.0838 5.88877C10.9361 5.97433 10.7784 6.05654 10.609 6.15385C10.4082 6.25168 10.1863 6.29836 9.96304 6.28975H0.604578C0.443894 6.27737 0.283585 6.31804 0.148231 6.40551C0.0990305 6.44595 0.060031 6.49739 0.0343834 6.55568C0.00873576 6.61397 -0.00284066 6.67747 0.000589423 6.74106C0.000589423 6.98769 0.15662 7.15714 0.46868 7.24439L1.27064 7.39203C1.44481 7.42453 1.60539 7.50803 1.73202 7.63195C1.83643 7.74815 1.89175 7.90029 1.88638 8.05641V21.7653C1.89211 21.9215 1.83674 22.0737 1.73202 22.1897C1.60539 22.3137 1.44481 22.3972 1.27064 22.4297L0.46868 22.579C0.15662 22.6696 0.000589423 22.8374 0.000589423 23.0823C-0.00257487 23.1459 0.00912172 23.2093 0.0347505 23.2675C0.0603793 23.3258 0.0992345 23.3772 0.148231 23.4179C0.281443 23.5107 0.442689 23.5546 0.604578 23.542H10.4026C10.616 23.5355 10.8283 23.575 11.0251 23.6578C11.1928 23.7366 11.3606 23.8121 11.4999 23.8859C11.6488 23.9605 11.8131 23.999 11.9797 23.9984C12.0689 24.0047 12.1586 23.9931 12.2433 23.9643C12.328 23.9355 12.4061 23.89 12.4729 23.8306C12.6111 23.6771 12.7071 23.4904 12.7515 23.2887L13.7581 19.2621C13.7846 19.1846 13.7951 19.1025 13.7887 19.0209C13.7824 18.9392 13.7594 18.8597 13.7212 18.7873C13.6808 18.7243 13.6263 18.6716 13.5619 18.6334C13.4975 18.5952 13.4251 18.5727 13.3504 18.5675Z" fill="#1A1A1A"/>
  <path d="M28.3177 22.698L27.7993 22.5738C27.6426 22.5352 27.5025 22.4469 27.4 22.3222C27.2935 22.1643 27.2433 21.9752 27.2574 21.7853V15.3377C27.2574 14.2192 26.9392 13.3317 26.3028 12.6751C25.6663 12.0186 24.8275 11.6903 23.7862 11.6903C23.0397 11.7032 22.3064 11.8887 21.6437 12.2322C20.8197 12.6689 20.0537 13.2072 19.3636 13.8345V12.4419C19.3732 12.2656 19.3129 12.0926 19.1958 11.9604C19.1321 11.9004 19.0564 11.8545 18.9737 11.8256C18.8911 11.7967 18.8033 11.7855 18.716 11.7926C18.5642 11.7958 18.4133 11.8167 18.2664 11.8547C18.0503 11.9114 17.8379 11.9814 17.6305 12.0644L15.6038 12.7741C15.4604 12.8137 15.3278 12.8854 15.2162 12.9838C15.1822 13.0205 15.1559 13.0636 15.1386 13.1105C15.1213 13.1575 15.1135 13.2074 15.1156 13.2573C15.1145 13.2996 15.1221 13.3417 15.138 13.381C15.1539 13.4203 15.1776 13.4558 15.2078 13.4855C15.2979 13.5587 15.4077 13.6037 15.5233 13.6147L16.3487 13.6516C16.4084 13.6532 16.467 13.6672 16.521 13.6926C16.575 13.718 16.6232 13.7543 16.6624 13.7992C16.7344 13.9218 16.7666 14.0636 16.7547 14.2052V21.8356C16.768 22.0121 16.7251 22.1883 16.6322 22.339C16.5392 22.4561 16.408 22.5368 16.2615 22.5671L15.6826 22.703C15.5576 22.7274 15.4416 22.7854 15.3471 22.8708C15.2799 22.9399 15.2425 23.0327 15.2431 23.1292C15.2402 23.1876 15.251 23.246 15.2746 23.2996C15.2982 23.3531 15.3339 23.4005 15.379 23.4379C15.5016 23.5213 15.6489 23.5604 15.7967 23.5486H20.2109C20.5968 23.5486 20.7897 23.4049 20.7897 23.1174C20.7897 22.9195 20.6588 22.7819 20.3954 22.698L19.8535 22.5621C19.707 22.5318 19.5758 22.451 19.4827 22.3339C19.3913 22.1827 19.3485 22.007 19.3603 21.8306V14.7673L19.528 14.6197C19.9894 14.2138 20.5056 13.8749 21.0615 13.613C21.4813 13.4125 21.9386 13.3027 22.4037 13.2909C22.7017 13.2775 22.9993 13.3254 23.278 13.4316C23.5568 13.5378 23.8108 13.7 24.0244 13.9083C24.4304 14.3199 24.6334 14.9351 24.6334 15.7538V21.7937C24.6441 21.9777 24.604 22.1611 24.5177 22.3239C24.4723 22.3887 24.4146 22.4439 24.3478 22.4862C24.281 22.5286 24.2064 22.5572 24.1284 22.5705L23.5613 22.7064C23.2979 22.7886 23.1671 22.9278 23.1671 23.1258C23.1671 23.4122 23.36 23.5559 23.7459 23.557H28.1869C28.3369 23.5706 28.4871 23.5314 28.6114 23.4463C28.6551 23.408 28.6896 23.3604 28.7122 23.3069C28.7349 23.2535 28.7452 23.1956 28.7422 23.1376C28.7426 23.0896 28.7335 23.0421 28.7154 22.9977C28.6972 22.9534 28.6704 22.9131 28.6365 22.8792C28.5488 22.7908 28.4386 22.7281 28.3177 22.698Z" fill="#1A1A1A"/>
  <path d="M42.3722 22.6845L41.8303 22.5621C41.683 22.5304 41.5506 22.45 41.4545 22.3339C41.3583 22.1844 41.313 22.0079 41.3253 21.8306V6.01949C41.3349 5.84316 41.2747 5.67016 41.1576 5.53798C41.0956 5.47883 41.0219 5.43334 40.9413 5.40444C40.8607 5.37554 40.7749 5.36388 40.6895 5.3702C40.5355 5.37207 40.3823 5.39234 40.2331 5.4306C40.0171 5.48816 39.8043 5.55705 39.5956 5.63696L37.5823 6.35168C37.4406 6.3923 37.3088 6.46138 37.1947 6.55469C37.1599 6.58962 37.1325 6.63129 37.1143 6.67716C37.0962 6.72304 37.0876 6.77213 37.089 6.82145C37.0879 6.86554 37.0954 6.90943 37.1113 6.9506C37.1271 6.99177 37.1509 7.02941 37.1813 7.06137C37.2663 7.13274 37.3724 7.17402 37.4833 7.17881L38.3222 7.21572C38.3824 7.21683 38.4417 7.23106 38.4959 7.25743C38.5501 7.2838 38.5979 7.32167 38.6359 7.3684C38.7073 7.49423 38.7395 7.63855 38.7282 7.7828V12.8899C37.8381 12.0871 36.6732 11.6576 35.475 11.6903C34.4542 11.6775 33.4495 11.9456 32.5709 12.4654C31.694 12.9949 30.9782 13.7537 30.5005 14.6599C29.9871 15.6061 29.7304 16.728 29.7304 18.0254C29.7098 19.0654 29.9333 20.0957 30.3831 21.0336C30.7864 21.8679 31.4086 22.5771 32.1833 23.0855C32.9575 23.5856 33.8623 23.8454 34.7838 23.8321C35.7603 23.8369 36.7173 23.5583 37.5387 23.0302C38.001 22.7329 38.4253 22.3801 38.802 21.9799V22.2903C38.7909 22.4602 38.815 22.6306 38.8727 22.7908C38.9304 22.951 39.0206 23.0976 39.1376 23.2214C39.2591 23.3347 39.4019 23.4227 39.5577 23.4803C39.7135 23.5379 39.8792 23.564 40.0452 23.557H42.2515C42.4013 23.5677 42.5505 23.5288 42.6759 23.4462C42.7225 23.4098 42.7597 23.3628 42.7845 23.3091C42.8093 23.2554 42.821 23.1966 42.8185 23.1375C42.8201 23.0885 42.8115 23.0396 42.7933 22.994C42.7751 22.9484 42.7477 22.907 42.7128 22.8724C42.6156 22.784 42.4989 22.7196 42.3722 22.6845ZM37.7064 21.8708C37.1431 22.2484 36.4804 22.4504 35.8022 22.4513C35.1896 22.4595 34.5901 22.2739 34.0892 21.9212C33.5494 21.5178 33.1366 20.9682 32.8997 20.3374C32.585 19.5052 32.4362 18.6195 32.4618 17.7302C32.4618 16.6284 32.6117 15.7163 32.9114 14.9938C33.1549 14.3444 33.5837 13.7808 34.1446 13.373C34.6611 13.0154 35.2763 12.8277 35.9045 12.8362C36.5863 12.8362 37.2528 13.0376 37.8205 13.415C38.1604 13.6408 38.4656 13.9149 38.7265 14.2287V20.9565C38.432 21.3085 38.0885 21.6165 37.7064 21.8708Z" fill="#1A1A1A"/>
  <path d="M53.1718 12.4723C52.1894 11.9444 51.0873 11.6792 49.9723 11.7022C48.8401 11.6779 47.7209 11.9478 46.7242 12.4857C45.8116 12.9874 45.0534 13.7288 44.5314 14.6299C43.9898 15.5812 43.7151 16.661 43.7361 17.7555C43.715 18.8557 43.9847 19.942 44.518 20.9046C45.0279 21.8087 45.7789 22.5533 46.6873 23.0555C47.685 23.5682 48.791 23.8345 49.9127 23.8322C51.0344 23.8299 52.1393 23.5589 53.1349 23.0421C54.0482 22.5356 54.8067 21.7904 55.3294 20.8862C55.8668 19.9429 56.1414 18.8728 56.1246 17.7874C56.1462 16.6832 55.8759 15.5928 55.3411 14.6265C54.8336 13.7197 54.0821 12.9734 53.1718 12.4723ZM53.3815 20.0406C53.2788 20.7358 52.9776 21.3865 52.5141 21.9146C52.0713 22.3834 51.4771 22.6806 50.8364 22.7535C50.1733 22.8604 49.4935 22.7479 48.9002 22.4331C48.2701 22.0734 47.7539 21.5437 47.4104 20.9046C46.9581 20.0818 46.657 19.1845 46.5212 18.2555C46.3471 17.3422 46.3312 16.4058 46.4742 15.4872C46.577 14.7942 46.877 14.1454 47.3383 13.6182C47.7795 13.152 48.3702 12.8551 49.0076 12.7793C49.6706 12.6638 50.3532 12.773 50.9471 13.0897C51.5762 13.4512 52.0926 13.9803 52.4386 14.6181C52.8915 15.4429 53.1922 16.3426 53.3261 17.274C53.5053 18.186 53.524 19.1222 53.3815 20.0406Z" fill="#1A1A1A"/>
  <path d="M75.7109 12.3682C75.7136 12.3086 75.7016 12.2492 75.6758 12.1953C75.65 12.1415 75.6114 12.0948 75.5632 12.0595C75.446 11.9795 75.3056 11.9406 75.1639 11.9488H71.8772C71.7345 11.9414 71.5928 11.9777 71.4712 12.0528C71.4231 12.0865 71.3843 12.1319 71.3584 12.1848C71.3326 12.2376 71.3206 12.2961 71.3236 12.3548C71.32 12.4073 71.3281 12.4599 71.3473 12.509C71.3664 12.558 71.3961 12.6021 71.4343 12.6383C71.5421 12.723 71.6687 12.7806 71.8034 12.8061L72.3067 12.8917C72.6675 12.9504 72.8755 13.0746 72.9292 13.2675C72.9829 13.4604 72.9292 13.8245 72.7497 14.3597L70.4092 21.5941L67.9949 14.1064C67.8551 13.6791 67.8081 13.3749 67.854 13.1937C67.8787 13.1027 67.9324 13.0223 68.0068 12.9645C68.0813 12.9067 68.1725 12.8747 68.2667 12.8732L68.8456 12.7877C68.9694 12.7757 69.0866 12.7259 69.1811 12.6451C69.2176 12.609 69.2463 12.5658 69.2654 12.5182C69.2844 12.4706 69.2934 12.4195 69.2918 12.3682C69.2918 12.088 69.1056 11.9488 68.7365 11.9488H64.1865C63.8157 11.9488 63.6311 12.0847 63.6311 12.3548C63.6245 12.4576 63.6575 12.5591 63.7234 12.6383C63.8169 12.7204 63.9293 12.7781 64.0506 12.8061L64.5304 12.8934C64.6652 12.9179 64.7897 12.9822 64.8878 13.0779C65.0138 13.2341 65.1063 13.4146 65.1595 13.6081L65.3525 14.1785L62.8443 21.5606L60.4384 14.2171C60.2706 13.7138 60.2203 13.3782 60.2706 13.2105C60.3209 13.0427 60.5206 12.9336 60.8494 12.8749L61.3527 12.7893C61.4865 12.7656 61.6119 12.7078 61.7168 12.6216C61.7523 12.5847 61.7798 12.541 61.7977 12.4931C61.8156 12.4452 61.8234 12.3941 61.8208 12.3431C61.8238 12.2843 61.8118 12.2258 61.786 12.173C61.7602 12.1202 61.7214 12.0748 61.6732 12.0411C61.5518 11.9654 61.41 11.9291 61.2672 11.937H56.494C56.3502 11.9286 56.2076 11.9675 56.088 12.0478C56.0395 12.0829 56.0005 12.1295 55.9745 12.1833C55.9484 12.2372 55.9361 12.2967 55.9387 12.3565C55.9333 12.4554 55.9671 12.5524 56.0326 12.6266C56.1284 12.7101 56.2439 12.7678 56.3682 12.7944L56.8228 12.8816C56.9642 12.9099 57.0936 12.9808 57.1936 13.0846C57.3356 13.2703 57.4405 13.4816 57.5023 13.7071L60.6816 23.0018C60.7447 23.2103 60.8721 23.3936 61.0457 23.5252C61.2048 23.6301 61.3921 23.684 61.5826 23.6796H62.4567C62.6392 23.681 62.8192 23.6366 62.9802 23.5504C63.1568 23.4435 63.2868 23.274 63.3442 23.0756L65.9011 15.8093L68.3238 23.0018C68.3849 23.2112 68.5157 23.3935 68.6946 23.5185C68.8463 23.6245 69.0262 23.6829 69.2113 23.6863H70.0753C70.2548 23.6864 70.4312 23.6395 70.5871 23.5504C70.7645 23.4363 70.8936 23.2606 70.9494 23.0571L74.0097 14.0963C74.1038 13.7754 74.2367 13.4672 74.4056 13.1786C74.4964 13.0288 74.6421 12.9204 74.8116 12.8766L75.268 12.8028C75.3993 12.7841 75.5217 12.7255 75.6186 12.635C75.6815 12.5607 75.7144 12.4655 75.7109 12.3682Z" fill="#1A1A1A"/>
  <path d="M88.53 22.8641C88.4334 22.7793 88.3186 22.7179 88.1944 22.6845L87.6509 22.5621C87.5035 22.5304 87.3711 22.45 87.275 22.3339C87.1798 22.184 87.1346 22.0078 87.1459 21.8306V6.01949C87.1562 5.84452 87.0991 5.67224 86.9865 5.53798C86.9245 5.47883 86.8509 5.43334 86.7702 5.40444C86.6896 5.37554 86.6038 5.36388 86.5184 5.3702C86.3644 5.37197 86.2112 5.39225 86.062 5.4306C85.8448 5.4889 85.6308 5.55891 85.4211 5.64032L83.3995 6.35504C83.2575 6.39614 83.1252 6.46515 83.0102 6.55805C82.9756 6.59306 82.9485 6.63479 82.9306 6.68066C82.9127 6.72654 82.9044 6.7756 82.9062 6.82481C82.9045 6.86897 82.9118 6.91301 82.9276 6.95426C82.9435 6.99551 82.9676 7.03309 82.9985 7.06473C83.0834 7.13609 83.1896 7.17738 83.3005 7.18217L84.1393 7.21908C84.1998 7.22028 84.2593 7.23455 84.3138 7.2609C84.3682 7.28725 84.4163 7.32507 84.4548 7.37175C84.5254 7.49787 84.5575 7.64197 84.547 7.78616V12.8899C83.6565 12.0867 82.491 11.6572 81.2922 11.6903C80.2719 11.6774 79.2678 11.9456 78.3897 12.4654C77.5124 12.9945 76.7965 13.7533 76.3194 14.6599C75.806 15.6061 75.5487 16.728 75.5476 18.0254C75.5267 19.0656 75.7508 20.0961 76.2019 21.0336C76.6046 21.8678 77.2262 22.577 78.0005 23.0855C78.7744 23.5828 79.6778 23.8408 80.5976 23.8271C81.5741 23.8315 82.531 23.553 83.3525 23.0251C83.8142 22.727 84.2383 22.3743 84.6158 21.9749V22.2852C84.6043 22.4552 84.6282 22.6257 84.6859 22.786C84.7437 22.9463 84.8341 23.0928 84.9514 23.2164C85.0726 23.3296 85.2151 23.4175 85.3707 23.4751C85.5262 23.5327 85.6916 23.5588 85.8574 23.5519H88.0636C88.2139 23.5627 88.3637 23.5238 88.4897 23.4412C88.536 23.4046 88.5729 23.3575 88.5974 23.3038C88.6219 23.2502 88.6333 23.1914 88.6307 23.1325C88.633 23.0833 88.6253 23.0341 88.608 22.9879C88.5907 22.9417 88.5642 22.8996 88.53 22.8641ZM83.5253 21.8708C82.9617 22.248 82.2992 22.45 81.621 22.4513C81.0079 22.4595 80.4079 22.274 79.9064 21.9212C79.3666 21.5178 78.9538 20.9682 78.7169 20.3374C78.4022 19.5052 78.2534 18.6195 78.279 17.7302C78.279 16.6284 78.4294 15.7163 78.7303 14.9938C78.9724 14.3441 79.4008 13.7804 79.9618 13.373C80.4773 13.016 81.0913 12.8284 81.7184 12.8362C82.4006 12.836 83.0678 13.0373 83.636 13.415C83.976 13.6414 84.2812 13.9161 84.542 14.2304V20.9565C84.2478 21.3076 83.9055 21.6154 83.5253 21.8708Z" fill="#1A1A1A"/>
</svg>