<svg width="18" height="19" viewBox="0 0 18 19" fill="none" xmlns="http://www.w3.org/2000/svg">
<g clip-path="url(#clip0_6747_12283)">
<path d="M9 18.5C13.9706 18.5 18 14.4706 18 9.5C18 4.52944 13.9706 0.5 9 0.5C4.02944 0.5 0 4.52944 0 9.5C0 14.4706 4.02944 18.5 9 18.5Z" fill="#F0F0F0"/>
<path d="M0 9.49999C0 13.3697 2.44237 16.6686 5.86958 17.9402V1.05981C2.44237 2.33142 0 5.63034 0 9.49999Z" fill="#6DA544"/>
<path d="M17.9985 9.49999C17.9985 5.63034 15.5561 2.33142 12.1289 1.05981V17.9403C15.5561 16.6686 17.9985 13.3697 17.9985 9.49999Z" fill="#6DA544"/>
</g>
<defs>
<clipPath id="clip0_6747_12283">
<rect width="18" height="18" fill="white" transform="translate(0 0.5)"/>
</clipPath>
</defs>
</svg>
