<svg width="91" height="90" viewBox="0 0 91 90" fill="none" xmlns="http://www.w3.org/2000/svg">
<path opacity="0.4" d="M69.2305 21.2625L25.2055 65.2875C23.5555 66.9375 20.7805 66.7124 19.4305 64.7624C14.7805 57.9749 12.043 49.9499 12.043 41.6999V25.2375C12.043 22.1625 14.368 18.675 17.218 17.5125L38.1055 8.9625C42.8305 7.0125 48.0806 7.0125 52.8056 8.9625L67.9555 15.15C70.468 16.1625 71.1055 19.3875 69.2305 21.2625Z" fill="#F47301"/>
<path d="M72.7625 26.406C75.2 24.3435 78.9126 26.1059 78.9126 29.2934V41.7059C78.9126 60.0434 65.6001 77.2184 47.4126 82.2434C46.1751 82.5809 44.8251 82.5809 43.5501 82.2434C38.2251 80.7434 33.275 78.231 29.0375 74.931C27.2375 73.5435 27.05 70.9185 28.625 69.306C36.8 60.9435 60.725 36.5685 72.7625 26.406Z" fill="#F47301"/>
</svg>
